<?xml version="1.0" encoding="UTF-8" standalone="no"?>
<!DOCTYPE svg PUBLIC "-//W3C//DTD SVG 1.1//EN" "http://www.w3.org/Graphics/SVG/1.1/DTD/svg11.dtd">
<!-- Created with Vectornator (http://vectornator.io/) -->
<svg height="439.5219784179262px" stroke-miterlimit="10" style="fill-rule:nonzero;clip-rule:evenodd;stroke-linecap:round;stroke-linejoin:round;" version="1.1" viewBox="0 0 1024 439.522" width="1024.0px" xml:space="preserve" xmlns="http://www.w3.org/2000/svg" xmlns:vectornator="http://vectornator.io" xmlns:xlink="http://www.w3.org/1999/xlink">
<defs/>
<clipPath id="ArtboardFrame">
<rect height="439.522" width="1024" x="0" y="0"/>
</clipPath>
<g clip-path="url(#ArtboardFrame)" id="Layer-1" vectornator:layerName="Layer 1">
<g opacity="1" vectornator:layerName="g 1">
<path d="M837.517 0.275489C825.22-0.684751 812.4 0.867085 800.86 4.9023C789.157 8.99711 787.466 45.2169 789.795 54.7509C801.145 101.238 817.52 150.225 836.048 195.127C844.565 215.771 853.867 252.626 887.747 250.002C901.389 248.944 907.431 231.757 913.078 220.252C924.67 196.637 898.001 146.514 900.627 141.927C912.358 121.456 1000.12 213.005 1020.54 165.218C1036.57 127.705 992.841 80.8385 972.039 58.8987C941.3 26.4779 881.424 3.70807 837.517 0.275489ZM851.264 55.9473C854.436 55.8987 857.378 57.466 859.131 60.0156C859.268 60.115 859.43 60.1481 859.563 60.254C877.626 74.8232 887.835 90.251 879.36 98.2994C874.802 102.63 869.417 101.717 864.922 98.9373C862.69 97.5599 860.426 95.518 858.093 92.7962C853.33 87.2401 848.182 78.865 842.965 67.9911C840.889 63.669 842.946 58.5808 847.632 56.6669C848.805 56.1879 850.059 55.9672 851.264 55.9473Z" fill="#e5aa20" fill-rule="nonzero" opacity="1" stroke="none" vectornator:layerName="path"/>
<path d="M669.884 170.803C689.201 201.423 637.014 72.9402 606.517 99.9373C593.915 111.094 585.082 125.906 578.72 140.912C565.809 171.357 597.718 203.939 609.108 234.898C613.873 247.854 652.404 341.297 670.572 342.439C707.717 344.774 717.01 344.651 719.65 308.532C720.33 299.212 716.241 290.078 713.431 281.103C709.835 269.619 687.518 246.967 700.47 247.295C719.977 247.792 728.775 272.493 745.403 281.917C770.351 296.058 807.656 315.066 828.116 286.208C862.753 237.353 747.298 209.705 727.291 195.339C723.126 192.348 726.063 185.522 727.006 180.73C732.184 154.444 743.62 129.089 745.587 102.432C746.478 90.3658 745.881 74.6289 735.374 67.3951C725.383 60.5167 708.156 62.9648 698.055 69.7085C686.652 77.3242 684.546 92.5843 679.5 104.71C674.352 117.085 662.171 158.576 669.884 170.803Z" fill="#e5aa20" fill-rule="nonzero" opacity="1" stroke="none" vectornator:layerName="path"/>
<path d="M377.652 188.783C367.865 243.627 399.765 325.022 417.247 380.144C423.431 399.645 427.561 415.304 455.772 413.207C515.018 408.806 502.776 367.173 489.733 332.642C486.134 323.115 483.032 313.433 479.435 303.905C476.723 296.725 463.555 278.911 470.804 282.529C496.699 295.46 564.4 400.329 604.058 376.219C609.744 372.762 615.094 366.46 614.802 360.182C613.394 330.106 607.986 300.009 599.135 271.037C590.279 242.048 575.564 214.826 562.018 187.425C552.755 168.693 543.274 131.583 522.026 137.886C500.777 144.188 500.215 174.913 497.802 187.944C494.024 208.356 522.915 255.995 519.625 267.525C518.949 269.898 513.787 267.845 511.767 266.246C504.211 260.269 498.736 252.355 491.958 245.631C467.637 221.504 434.012 175.169 391.786 177.677" fill="#e5aa20" fill-rule="nonzero" opacity="1" stroke="none" vectornator:layerName="path"/>
<path d="M297.355 197.681C277.264 197.052 261.308 214.837 246.087 226.952C232.361 237.876 228.549 257.138 226.635 273.769C222.335 311.146 225.152 351.059 239.518 386.63C245.026 400.269 255.164 412.315 271.764 414.865C374.835 430.688 368.998 312.002 361.417 248.805C358.535 224.782 340.191 209.57 317.67 201.35L297.355 197.681ZM293.897 269.703C295.738 269.697 297.501 270.297 299.084 271.297C301.604 272.034 303.872 273.652 304.961 276.083C311.02 289.584 311.449 307.897 308.333 327.847C307.901 330.618 306.838 334.801 305.393 338.136C304.012 341.326 302.354 343.798 299.688 345.633C294.628 349.116 288.222 348.284 283.868 344.119C268.492 329.401 271.315 287.052 287.326 272.176C289.13 270.498 291.522 269.71 293.897 269.703Z" fill="#e5aa20" fill-rule="nonzero" opacity="1" stroke="none" vectornator:layerName="path"/>
<path d="M99.7296 268.739C116.985 253.247 134.461 202.067 117.443 181.35C109.253 171.379 96.1486 158.256 83.0139 161.362C65.6864 165.459 57.7321 184.856 46.9466 198.021C13.0138 239.441 11.4293 332.721 7.92002 383.581C7.22992 393.581 5.66 410.567 16.5133 417.381C22.7953 421.326 30.2406 428.339 37.3599 425.889C53.2771 420.412 67.8096 409.602 77.155 396.514C91.1017 376.981 79.2211 346.818 94.5852 328.212C97.3414 324.874 99.2427 335.487 100.713 339.459C103.896 348.052 105.782 357.01 108.485 365.743C110.479 372.184 112.499 378.621 114.803 384.974C119.004 396.552 136.284 434.617 152.582 434.507C164.582 434.427 178.981 435.449 187.893 428.037C198.342 419.348 201.469 404.766 203.747 391.963C209.102 361.864 176.872 329.097 158.764 306.645C153.693 300.358 140.847 295.597 143.16 288.056C146.465 277.281 162.097 274.021 171.079 266.491C197.081 244.695 228.279 219.237 205.691 184.549C196.946 171.119 171.954 192.844 158.631 202.559C145.261 212.31 93.5345 274.299 99.7296 268.739Z" fill="#e5aa20" fill-rule="nonzero" opacity="1" stroke="none" vectornator:layerName="path"/>
<path d="M92.3092 273.745C109.565 258.253 127.04 207.074 110.022 186.357C101.833 176.386 88.7284 163.262 75.5935 166.368C58.2659 170.467 50.3118 189.862 39.5261 203.027C5.59336 244.448 4.00882 337.728 0.499562 388.588C-0.190541 398.587-1.76045 415.576 9.09287 422.388C15.3748 426.333 22.8201 433.346 29.9394 430.895C45.8566 425.419 60.3892 414.609 69.7346 401.521C83.6815 381.987 71.8007 351.825 87.1647 333.218C89.921 329.88 91.8225 340.494 93.293 344.465C96.4756 353.059 98.3615 362.017 101.065 370.749C103.058 377.191 105.078 383.627 107.383 389.98C111.583 401.559 128.864 439.624 145.162 439.513C157.162 439.434 171.559 440.456 180.474 433.043C190.92 424.357 194.048 409.772 196.326 396.969C201.683 366.871 169.453 334.103 151.344 311.651C146.272 305.365 133.427 300.603 135.74 293.062C139.044 282.288 154.676 279.028 163.66 271.498C189.66 249.702 220.858 224.243 198.27 189.557C189.525 176.125 164.533 197.851 151.211 207.568C137.84 217.316 86.1143 279.308 92.3092 273.745Z" fill="#ffcb4f" fill-rule="nonzero" opacity="1" stroke="none" vectornator:layerName="path"/>
<path d="M289.933 202.687C269.843 202.06 253.886 219.844 238.666 231.958C224.94 242.883 221.127 262.145 219.214 278.776C214.916 316.155 217.73 356.065 232.097 391.636C237.604 405.276 247.742 417.322 264.342 419.871C367.414 435.694 361.577 317.009 353.995 253.812C351.114 229.788 332.77 214.579 310.251 206.356L289.933 202.687ZM286.476 274.71C288.317 274.703 290.08 275.304 291.663 276.304C294.185 277.041 296.451 278.659 297.543 281.089C303.601 294.59 304.03 312.903 300.914 332.854C300.48 335.624 299.419 339.807 297.974 343.143C296.593 346.333 294.933 348.805 292.267 350.639C287.207 354.123 280.801 353.29 276.447 349.125C261.071 334.408 263.894 292.058 279.905 277.182C281.711 275.504 284.1 274.716 286.476 274.71Z" fill="#ffcb4f" fill-rule="nonzero" opacity="1" stroke="none" vectornator:layerName="path"/>
<path d="M370.231 193.789C360.444 248.633 392.343 330.028 409.826 385.151C416.012 404.651 420.14 420.311 448.353 418.216C507.597 413.812 495.355 372.18 482.312 337.648C478.713 328.121 475.613 318.439 472.014 308.912C469.302 301.733 456.136 283.917 463.383 287.535C489.278 300.466 556.981 405.335 596.636 381.226C602.325 377.769 607.675 371.467 607.38 365.189C605.973 335.114 600.568 305.018 591.714 276.043C582.858 247.055 568.143 219.833 554.596 192.432C545.334 173.699 535.853 136.59 514.607 142.892C493.356 149.194 492.794 179.92 490.381 192.95C486.603 213.363 515.496 261.002 512.206 272.531C511.528 274.904 506.366 272.851 504.348 271.253C496.792 265.275 491.315 257.361 484.537 250.638C460.218 226.51 426.591 180.176 384.365 182.683" fill="#ffcb4f" fill-rule="nonzero" opacity="1" stroke="none" vectornator:layerName="path"/>
<path d="M662.465 175.809C681.78 206.429 629.595 77.9467 599.098 104.944C586.496 116.1 577.663 130.912 571.299 145.918C558.388 176.364 590.297 208.945 601.687 239.905C606.454 252.863 644.985 346.304 663.15 347.445C700.296 349.781 709.588 349.657 712.229 313.539C712.909 304.219 708.822 295.084 706.01 286.111C702.413 274.626 680.097 251.973 693.049 252.302C712.556 252.799 721.356 277.5 737.982 286.924C762.93 301.064 800.235 320.073 820.697 291.215C855.334 242.36 739.879 214.711 719.87 200.345C715.705 197.354 718.642 190.529 719.587 185.736C724.763 159.45 736.199 134.095 738.168 107.44C739.057 95.3745 738.46 79.6354 727.953 72.4038C717.962 65.5232 700.735 67.9713 690.636 74.715C679.233 82.3307 677.124 97.5908 672.081 109.716C666.931 122.093 654.749 163.582 662.465 175.809Z" fill="#ffcb4f" fill-rule="nonzero" opacity="1" stroke="none" vectornator:layerName="path"/>
<path d="M830.096 5.28198C817.799 4.32174 804.979 5.87358 793.441 9.90879C781.736 14.0036 780.045 50.2234 782.374 59.7574C793.724 106.246 810.099 155.234 828.626 200.133C837.146 220.777 846.448 257.633 880.326 255.008C893.968 253.951 900.01 236.764 905.657 225.259C917.248 201.643 890.58 151.521 893.209 146.936C904.937 126.462 992.695 218.011 1013.12 170.225C1029.15 132.711 985.42 85.845 964.62 63.9052C933.879 31.4844 874.003 8.71456 830.096 5.28198ZM843.843 60.9538C847.014 60.9052 849.956 62.4725 851.71 65.0221C851.847 65.1215 852.011 65.1546 852.141 65.2627C870.204 79.8297 880.414 95.2575 871.941 103.306C867.383 107.637 861.998 106.723 857.503 103.946C855.272 102.566 853.005 100.525 850.672 97.8027C845.909 92.2488 840.761 83.8715 835.544 72.9976C833.468 68.6755 835.525 63.5873 840.211 61.6734C841.384 61.1944 842.637 60.9737 843.843 60.9538Z" fill="#ffcb4f" fill-rule="nonzero" opacity="1" stroke="none" vectornator:layerName="path"/>
<path d="M83.9255 173.079C67.1179 171.785 55.6601 189.248 50.0794 202.489C49.5897 203.65 52.6543 205.173 53.6214 204.303C62.9538 195.908 72.8649 169.845 92.9774 177.434C96.8496 178.896 97.4192 184.582 101.242 186.149" fill="#fffbc7" fill-rule="nonzero" opacity="1" stroke="none" vectornator:layerName="path"/>
<path d="M22.5301 268.933C16.3589 283.482 16.5156 294.769 15.4461 311.051" fill="#fffbc7" fill-rule="nonzero" opacity="1" stroke="none" vectornator:layerName="path"/>
<path d="M15.4461 323.031C13.9508 329.929 14.3573 344.896 17.0202 331.384" fill="#fffbc7" fill-rule="nonzero" opacity="1" stroke="none" vectornator:layerName="path"/>
<path d="M54.4086 408.719C40.6509 421.412 40.5443 414.83 22.1365 420.337C17.8283 421.626 31.2611 423.944 35.5176 422.516C39.5561 421.163 42.8886 418.439 46.5374 416.344C57.8821 409.832 62.579 401.19 68.1832 390.203" fill="#fffbc7" fill-rule="nonzero" opacity="1" stroke="none" vectornator:layerName="path"/>
<path d="M126.824 419.249C136.351 436.829 147.233 437.054 168.541 435.589C170.032 435.485 172.398 435.807 172.869 434.498C175.858 426.233 152.327 438.686 147.682 436.677C131.334 429.606 127.509 414.026 118.165 401.095" fill="#fffbc7" fill-rule="nonzero" opacity="1" stroke="none" vectornator:layerName="path"/>
<path d="M101.636 348.085C102.094 352.734 101.116 327.424 89.829 321.943C88.7776 321.433 86.7549 320.572 86.2868 321.58C85.9104 322.391 99.8794 333.234 100.455 333.925C101.279 334.911 101.767 336.103 102.423 337.192" fill="#fffbc7" fill-rule="nonzero" opacity="1" stroke="none" vectornator:layerName="path"/>
<path d="M172.477 343.728C175.233 348.304 190.918 367.513 187.038 373.138C184.409 376.948 176.865 354.736 176.805 354.619C170.58 342.412 164.454 335.426 155.553 325.574" fill="#fffbc7" fill-rule="nonzero" opacity="1" stroke="none" vectornator:layerName="path"/>
<path d="M119.346 245.331C132.304 236.366 145.562 219.398 155.947 210.113C160.17 206.336 164.86 202.999 169.723 199.946C171.093 199.085 175.56 197.361 174.443 198.493C163.994 209.1 147.563 215.422 136.663 226.089C126.871 235.669 120.625 247.819 109.901 256.951" fill="#fffbc7" fill-rule="nonzero" opacity="1" stroke="none" vectornator:layerName="path"/>
<path d="M199.238 204.665C199.756 209.429 202.328 217.444 201.207 221.731C200.626 223.952 197.657 229.797 197.271 227.541C195.648 218.06 198.706 207.643 194.515 198.857" fill="#fffbc7" fill-rule="nonzero" opacity="1" stroke="none" vectornator:layerName="path"/>
<path d="M285.187 212.126C260.558 214.645 247.798 227.473 234.138 247.448C232.517 249.816 229.436 256.803 232.203 255.655C237.813 253.326 250.735 229.122 252.314 227.111C258.895 218.727 295.822 211.038 285.187 212.126Z" fill="#fffbc7" fill-rule="nonzero" opacity="1" stroke="none" vectornator:layerName="path"/>
<path d="M244.965 406.221C254.664 413.892 259.457 416.212 274.357 416.212C276.375 416.212 270.904 414.148 268.942 413.715C258.777 411.463 256.438 413.75 248.834 409.432C236.789 402.596 231.816 380.513 231.816 367.687" fill="#fffbc7" fill-rule="nonzero" opacity="1" stroke="none" vectornator:layerName="path"/>
<path d="M353.252 307.746C353.252 320.572 355.565 350.35 348.225 363.05C347.127 364.95 347.141 358.763 347.452 356.628C349.732 340.991 351.947 349.021 352.091 335.22C352.242 320.909 350.798 306.985 351.706 292.762" fill="#fffbc7" fill-rule="nonzero" opacity="1" stroke="none" vectornator:layerName="path"/>
<path d="M266.623 348.421C273.445 364.158 298.272 356.955 278.611 358.767" fill="#fffbc7" fill-rule="nonzero" opacity="1" stroke="none" vectornator:layerName="path"/>
<path d="M401.357 189.58C387.934 187.29 363.098 197.681 375.797 214.173C377.339 216.177 375.931 201.61 381.233 194.922C387.987 186.403 399.302 187.785 407.053 193.688" fill="#fffbc7" fill-rule="nonzero" opacity="1" stroke="none" vectornator:layerName="path"/>
<path d="M415.429 388.281C422.571 410.644 441.219 419.147 465.475 410.053C467.029 409.47 463.887 406.483 462.21 406.519C458.799 406.591 456.062 409.287 452.839 410.322C445.45 412.699 432.373 410.496 426.76 406.053C417.01 398.331 412.487 382.12 409.889 371.219" fill="#fffbc7" fill-rule="nonzero" opacity="1" stroke="none" vectornator:layerName="path"/>
<path d="M460.416 281.789C455.416 283.067 464.5 296.314 459.32 296.107C453.805 295.886 452.869 286.97 453.257 281.891C453.426 279.694 462.714 281.202 460.416 281.789Z" fill="#fffbc7" fill-rule="nonzero" opacity="1" stroke="none" vectornator:layerName="path"/>
<path d="M388.932 302.184C391.763 312.044 394.73 321.872 397.575 331.73C398.539 335.079 403.835 344.189 403.101 340.79C401.151 331.73 397.22 323.13 393.99 314.389C388.554 299.687 382.693 284.932 380.111 269.582" fill="#fffbc7" fill-rule="nonzero" opacity="1" stroke="none" vectornator:layerName="path"/>
<path d="M500.7 272.326C504.028 273.595 507.093 276.352 510.685 276.131C514.126 275.919 516.241 270.2 519.527 271.171C524.963 272.776 513.07 279.891 507.678 278.1C498.348 275.003 492.027 266.688 485.616 260.017" fill="#fffbc7" fill-rule="nonzero" opacity="1" stroke="none" vectornator:layerName="path"/>
<path d="M503.833 157.051C518.122 135.1 534.149 156.397 540.17 173.706C542.167 179.447 534.244 162.942 530.821 157.806C522.945 145.98 497.28 167.119 503.833 157.051Z" fill="#fffbc7" fill-rule="nonzero" opacity="1" stroke="none" vectornator:layerName="path"/>
<path d="M583.705 271.833C587.657 282.866 592.738 293.601 595.612 304.914C596.671 309.091 598.65 314.183 596.107 317.773C594.57 319.943 591.345 314.3 590.757 311.766C589.229 305.175 590.778 298.259 590.026 291.553C588.061 273.999 577.415 257.606 572.481 240.808" fill="#fffbc7" fill-rule="nonzero" opacity="1" stroke="none" vectornator:layerName="path"/>
<path d="M570.518 375.926C576.268 376.661 581.987 379.795 587.669 378.705C592.773 377.725 601.513 366.204 596.325 366.69C589.501 367.33 592.027 381.802 579.372 378.97C572.882 377.517 566.947 374.378 561.084 371.429C559.096 370.427 557.722 368.626 556.041 367.224" fill="#fffbc7" fill-rule="nonzero" opacity="1" stroke="none" vectornator:layerName="path"/>
<path d="M492.991 210.63C495.167 219.382 493.611 214.003 499.66 228.453C508.516 249.607 494.366 209.001 494.603 198.392" fill="#fffbc7" fill-rule="nonzero" opacity="1" stroke="none" vectornator:layerName="path"/>
<path d="M595.206 123.467C597.382 121.374 582.56 134.17 581.471 139.323C579.18 150.183 577.712 161.212 576.936 172.253C576.795 174.247 576.651 177.536 578.755 178.008C586.763 179.807 577.273 155.909 578.037 153.258C581.167 142.389 586.766 131.581 595.206 123.467Z" fill="#fffbc7" fill-rule="nonzero" opacity="1" stroke="none" vectornator:layerName="path"/>
<path d="M648.536 323.457C656.02 341.591 672.429 347.56 693.943 339.929C696.718 338.944 698.717 335.975 699.177 333.267C699.625 330.622 693.769 335.293 691.328 336.737C689.373 337.891 687.669 339.565 685.444 340.174C678.966 341.951 665.809 342.938 660.308 337.816C649.65 327.887 644.21 314.139 636.354 302.192" fill="#fffbc7" fill-rule="nonzero" opacity="1" stroke="none" vectornator:layerName="path"/>
<path d="M611.86 255.741C613.582 260.107 624.942 280.694 620.479 269.125C616.912 259.88 611.702 251.245 607.492 242.234C599.834 225.843 600.396 227.119 596.567 217.415" fill="#fffbc7" fill-rule="nonzero" opacity="1" stroke="none" vectornator:layerName="path"/>
<path d="M648.703 154.775C650.456 159.214 662.972 168.633 663.058 170.512C663.204 173.734 655.188 169.485 653.412 166.706C647.697 157.768 643.982 147.795 637.964 139.027" fill="#fffbc7" fill-rule="nonzero" opacity="1" stroke="none" vectornator:layerName="path"/>
<path d="M683.77 250.37C705.302 239.572 711.427 257.247 715.017 255.32C718.287 253.565 712.753 247.622 709.252 246.3C696.838 241.618 673.799 255.373 683.77 250.37Z" fill="#fffbc7" fill-rule="nonzero" opacity="1" stroke="none" vectornator:layerName="path"/>
<path d="M719.62 76.0196C701.171 59.2033 672.534 100.299 679.734 104.858C680.784 105.522 689.115 82.6287 690.035 80.9467C695.707 70.5694 726.126 81.9488 719.62 76.0196Z" fill="#fffbc7" fill-rule="nonzero" opacity="1" stroke="none" vectornator:layerName="path"/>
<path d="M732.983 109.67C729.27 130.678 726.922 155.073 715.751 174.205C713.139 178.679 717.163 163.097 719.232 157.227C720.739 152.947 722.62 148.786 724.233 144.539C729.235 131.376 730.447 117.237 732.059 103.458" fill="#fffbc7" fill-rule="nonzero" opacity="1" stroke="none" vectornator:layerName="path"/>
<path d="M713.462 192.191C713.164 186.787 718.524 202.144 722.515 206.107C724.921 208.495 734.246 213.038 731.961 210.55C721.839 199.537 714.27 206.928 713.462 192.191Z" fill="#fffbc7" fill-rule="nonzero" opacity="1" stroke="none" vectornator:layerName="path"/>
<path d="M792.77 238.179C780.751 229.155 827.066 257.885 823.762 276.083C822.466 283.206 818.579 290.049 811.522 293.654C809.816 294.526 804.93 295.709 805.685 294.049C807.879 289.226 813.515 286.427 816.763 282.138C831.729 262.375 807.561 249.284 792.77 238.179Z" fill="#fffbc7" fill-rule="nonzero" opacity="1" stroke="none" vectornator:layerName="path"/>
<path d="M734.685 276.211C738.741 282.97 765.159 302.603 767.337 297.903C767.546 297.449 759.514 295.131 746.996 288.352C738.702 283.862 733.055 277.345 726.969 270.558" fill="#fffbc7" fill-rule="nonzero" opacity="1" stroke="none" vectornator:layerName="path"/>
<path d="M822.341 10.4253C799.411 10.5821 796 9.00153 786.542 29.6743C786.359 30.076 784.225 44.1463 784.501 44.8063C785.112 46.261 788.272 47.9188 789.182 46.6032C793.076 40.9808 787.852 33.1775 788.992 26.5883C791.214 13.7542 804.373 12.6836 815.855 11.3767C820.23 10.8779 824.646 10.7278 829.051 10.5335C832.397 10.3856 833.679 10.5997 836.77 10.8999" fill="#fffbc7" fill-rule="nonzero" opacity="1" stroke="none" vectornator:layerName="path"/>
<path d="M797.544 101.719C804.847 126.888 811.504 151.94 820.85 176.609C823.581 183.809 827.435 193.01 827.451 191.942C827.642 179.445 820.95 169.117 816.656 157.978C806.488 131.61 798.171 108.884 793.492 81.5206" fill="#fffbc7" fill-rule="nonzero" opacity="1" stroke="none" vectornator:layerName="path"/>
<path d="M845.352 230.128C853.948 239.625 863.106 253.163 879.325 250.649C886.47 249.543 889.205 246.137 893.39 240.395C895.377 237.667 899.106 229.04 896.141 230.863C890.072 234.598 888.829 242.547 884.485 247.953C869.756 266.291 843.011 222.914 838.658 215.475" fill="#fffbc7" fill-rule="nonzero" opacity="1" stroke="none" vectornator:layerName="path"/>
<path d="M884.011 143.38C884.002 145.583 883.63 147.812 883.983 149.993C884.22 151.464 887.622 154.333 887.694 152.85C888.035 145.737 881.928 139.687 892.856 138.916" fill="#fffbc7" fill-rule="nonzero" opacity="1" stroke="none" vectornator:layerName="path"/>
<path d="M835.43 77.6863C842.171 89.4542 846.042 97.6703 856.449 106.937C859.291 109.467 871.129 107.937 867.836 109.946C853.751 118.537 832.263 72.1588 835.43 77.6863Z" fill="#fffbc7" fill-rule="nonzero" opacity="1" stroke="none" vectornator:layerName="path"/>
<path d="M899.03 27.4094C922.561 37.6123 942.066 47.1241 960.375 64.3555C964.336 68.0861 968.124 72.9336 971.029 77.4125C972.208 79.2337 975.635 84.7435 974.361 82.9797C954.531 55.5544 924.026 32.7691 887.594 25.2903" fill="#fffbc7" fill-rule="nonzero" opacity="1" stroke="none" vectornator:layerName="path"/>
<path d="M1011.25 143.077C1013.46 151.47 1017.13 169.938 1005.91 175.328C1000.54 177.909 991.179 185.498 988.608 180.439C987.364 177.99 1007.76 173.509 1008.92 171.481C1015.79 159.402 1009.85 143.689 1006.93 131.738" fill="#fffbc7" fill-rule="nonzero" opacity="1" stroke="none" vectornator:layerName="path"/>
<path d="M933.612 153.141C939.721 156.931 945.461 161.13 951.626 164.869C970.892 176.553 924.711 150.201 921.314 148.093" fill="#fffbc7" fill-rule="nonzero" opacity="1" stroke="none" vectornator:layerName="path"/>
</g>
</g>
</svg>
