<?xml version="1.0" encoding="UTF-8" standalone="no"?>
<!DOCTYPE svg PUBLIC "-//W3C//DTD SVG 1.1//EN" "http://www.w3.org/Graphics/SVG/1.1/DTD/svg11.dtd">
<!-- Created with Vectornator (http://vectornator.io/) -->
<svg height="100%" stroke-miterlimit="10" style="fill-rule:nonzero;clip-rule:evenodd;stroke-linecap:round;stroke-linejoin:round;" version="1.1" viewBox="0 0 407 500" width="100%" xml:space="preserve" xmlns="http://www.w3.org/2000/svg" xmlns:vectornator="http://vectornator.io" xmlns:xlink="http://www.w3.org/1999/xlink">
<defs/>
<clipPath id="ArtboardFrame">
<rect height="500" width="407" x="0" y="0"/>
</clipPath>
<g clip-path="url(#ArtboardFrame)" id="Layer-1" vectornator:layerName="Layer 1">
<path d="M245.9 209.492C251.382 215.117 248.843 215.62 250.08 222.554C250.657 225.794 252.777 228.562 253.899 231.655C256.212 238.028 255.471 245.498 258.307 251.828C261.33 258.577 266.084 256.998 271.625 259.748C273.191 260.525 274.136 262.262 275.685 263.073C278.666 264.634 282.433 263.866 285.576 265.064C290.245 266.843 292.56 272.307 294.548 276.485C299.118 286.083 303.753 296.844 301.64 307.815C301.029 310.987 299.114 313.95 299.149 317.18C299.222 323.919 301.653 331.1 302.486 337.834C303.284 344.284 303.029 352.36 305.3 358.466C306.588 361.928 308.88 364.927 310.67 368.158C317.776 380.985 331.54 399.798 316.187 412.047C314.896 413.077 313.47 414.041 311.885 414.498C308.675 415.423 305.202 414.749 301.884 415.133C300.113 415.338 298.365 416.216 296.6 415.965C289.692 414.98 285.615 407.292 281.405 402.706C279.009 400.096 275.649 398.576 272.738 396.559C268.98 393.955 268.112 391.881 264.092 389.886C260.589 388.147 256.727 386.828 253.831 384.197C249.746 380.487 247.624 375.644 243.308 372.186C238.92 368.671 234.131 365.856 229.532 362.669C222.508 357.803 217.044 350.848 210.844 345.057C204.579 339.205 197.727 332.645 193.838 324.885C191.42 320.059 191.498 314.999 189.735 309.985C186.088 299.611 182.153 289.58 178.954 279.027C174.751 265.163 167.653 251.484 169.703 236.559C171.504 223.442 178.83 207.212 193.115 203.871C199.853 202.295 205.425 204.224 212.002 204.133C220.289 204.017 233.433 192.432 241.044 200.084C243.531 202.585 243.439 206.966 245.9 209.492Z" fill="#72a7ff" fill-rule="nonzero" opacity="1" stroke="none"/>
<path d="M173.418 211.596C181.565 210.866 179.732 215.91 179.375 219.69C179.07 222.917 177.737 225.563 177.764 228.852C177.817 235.334 179.295 242.046 178.17 248.559C177.589 251.917 176.475 253.919 176.878 257.427C177.21 260.313 177.51 263.722 178.652 266.423C180.322 270.374 183.683 273.541 185.253 277.467C187.019 281.884 187.616 286.971 189.273 291.479C191.77 298.271 196.193 303.899 199.231 310.354C201.127 314.38 201.817 318.812 203.622 322.843C205.164 326.285 207.579 329.522 209.661 332.632C214.217 339.436 219.889 345.256 225.149 351.43C227.87 354.624 229.501 358.793 232.708 361.591C238.036 366.239 245.695 367.939 251.288 372.518C255.394 375.881 257.013 381.415 260.264 385.507C262.306 388.077 265.408 389.361 267.682 391.662C269.84 393.844 268.917 394.03 271.5 395.821C275.39 398.515 279.778 399.353 284.194 400.657C288.213 401.844 292.163 404.358 295.61 406.671C300.86 410.196 319.447 418.953 316.563 426.928C316.187 427.97 315.186 428.67 314.609 429.615C314.084 430.476 314.034 431.673 313.268 432.328C312.353 433.11 308.589 433.776 307.367 433.928C297.713 435.129 291.361 425.004 282.67 422.437C279.353 421.458 276.324 423.106 273.386 424.204C267.36 426.455 260.921 426.181 256.644 420.736C253.025 416.13 256.055 410.72 254.82 405.585C254.045 402.363 249.129 394.05 246.483 392.008C238.697 385.998 227.084 390.033 221.479 380.505C216.414 371.892 223.972 361.582 217.372 353.875C211.404 346.907 201.478 345.435 192.853 345.468C187.342 345.489 178.465 345.875 174.949 340.414C167.817 329.336 180.348 317.088 177.624 305.76C176.766 302.195 174.991 296.791 171.955 294.448C169.178 292.305 165.63 291.949 162.608 290.367C159.738 288.864 155.132 285.013 153.427 282.292C152.306 280.503 151.886 278.358 151.219 276.355C147.761 265.977 158.192 259.552 159.077 249.916C159.715 242.972 153.856 242.921 150.331 238.783C146.419 234.192 145.934 221.539 148.802 216.568C152.803 209.634 160.165 206.304 167.717 204.743C172.535 203.748 168.468 212.039 173.418 211.596Z" fill="#050505" fill-rule="nonzero" opacity="1" stroke="none"/>
<path d="M407.889 3.98459C408.816 9.17902 408.204 15.3276 405.417 20.1097C404.346 21.9472 402.177 22.9472 401.025 24.7348C399.136 27.6653 398.531 32.84 397.555 36.0099C396.418 39.7045 393.827 42.879 392.913 46.6351C391.508 52.4058 392.958 59.9282 392.71 65.8601C392.244 77.0307 389.814 86.5937 387.79 97.5102C386.514 104.394 386.052 114.524 382.622 120.735C378.211 128.722 367.945 134.841 361.386 140.886C346.425 154.677 329.837 166.387 313.053 177.938C298.979 187.624 283.529 198.304 267.018 203.064C261.642 204.614 255.918 204.38 250.675 206.59C248.938 207.322 246.26 207.569 245.76 209.39C245.26 211.211 248.033 212.5 248.553 214.315C249.608 217.99 249.234 221.941 249.275 225.765C249.341 231.932 247.657 242.385 250.743 248.065C251.624 249.686 253.646 250.39 254.785 251.84C255.95 253.323 256.146 255.537 257.578 256.765C261.329 259.98 270.042 259.867 274.319 258.064C278.292 256.389 288.897 246.644 291.736 243.163C294.191 240.154 295.773 236.362 298.723 233.838C302.847 230.31 307.251 226.004 311.774 222.963C316.563 219.742 317.11 220.629 321.63 216.762C328.21 211.133 333.496 207.278 341.941 204.387C345.655 203.115 349.728 203.133 353.443 201.861C357.01 200.64 359.768 197.65 363.274 196.261C368.685 194.116 374.75 192.857 380.29 190.96C389.639 187.759 398.988 182.725 407.811 178.284" fill="#ffafdf" fill-rule="nonzero" opacity="1" stroke="none"/>
<path d="M287.679 453.904C299.059 468.089 318.893 464.667 335.248 464.637C338.237 464.631 350.212 463.023 350.386 468.002C350.444 469.68 347.926 470.316 346.958 471.686C343.998 475.876 345.14 478.682 339.013 479.009C334.804 479.235 330.753 477.208 326.553 476.849C319.256 476.226 298.294 478.69 292.851 473.803C289.271 470.589 285.147 461.694 283.73 457.02C283.139 455.072 283.6 452.878 282.891 450.971C279.886 442.89 267.856 438.928 260.561 436.917" fill="#efefef" fill-rule="nonzero" opacity="1" stroke="none"/>
<path d="M215.508 444.883C218.676 448.916 222.524 452.513 225.379 456.777C227.674 460.205 229.735 464.105 233.162 466.396C235.267 467.804 237.934 468.158 240.129 469.421C242.402 470.728 244.166 472.833 246.483 474.06C252.88 477.446 260.838 476.592 267.544 479.312C270.071 480.337 271.672 482.889 273.875 484.497C277.231 486.947 281.606 487.654 285.109 489.887C286.627 490.854 287.369 492.726 288.762 493.867C290.211 495.053 294.139 495.02 293.551 496.8C292.911 498.733 289.528 497.377 287.513 497.642C285.321 497.93 283.142 498.464 280.931 498.461C272.205 498.446 264.341 494.918 256.058 493.049C241.53 489.771 232.124 498.032 224.944 480.269C224.145 478.294 223.738 476.179 223.016 474.174C221.791 470.775 219.497 466.962 219.659 463.099C219.96 455.872 225.062 452.139 221.523 444.587C218.43 437.99 210.061 435.551 206.886 429.214C206.055 427.555 206.312 425.545 206.025 423.711" fill="#efefef" fill-rule="nonzero" opacity="1" stroke="none"/>
<path d="M103.451 213.848C111.958 225.805 106.452 238.772 107.303 252.281C107.621 257.321 109.704 262.983 110.478 267.723C110.802 269.708 110.302 271.794 110.772 273.749C111.842 278.196 117.372 293.614 124.251 290.714C126.161 289.909 127.048 287.639 128.269 285.961C129.371 284.446 131.397 283.027 131.197 281.163C130.933 278.7 128.489 277.018 127.09 274.977C124.221 270.79 118.819 264.442 117.924 259.285C116.836 253.022 121.803 246.49 122.534 240.341C124.377 224.837 111.364 215.166 107.266 200.885C106.754 199.1 106.779 197.2 106.405 195.381C106.022 193.519 106.691 190.713 104.998 189.855C103.469 189.08 102.017 191.553 100.527 192.402" fill="#efefef" fill-rule="nonzero" opacity="1" stroke="none"/>
<path d="M244.999 245.591C248.754 268.626 275.972 257.49 286.203 274.019C288.361 277.505 291.615 280.689 293.401 284.393C294.605 286.891 294.105 288.142 294.685 290.854C296.668 300.124 293.944 308.581 294.114 317.96C294.177 321.482 295.519 323.941 296.54 327.189C297.914 331.559 298.734 335.874 300.295 340.214C302.207 345.528 302.319 351.257 304.324 356.484C308.146 366.446 315.241 375.555 316.561 386.343C317.08 390.577 317.02 400.306 312.161 402.352C306.472 404.747 301.944 398.956 297.184 397.019C286.699 392.752 278.137 386.832 269.473 379.457C262.612 373.617 258.405 366.982 254.501 359.029C253.19 356.358 249.963 352.675 249.703 349.597C249.492 347.092 250.706 344.657 250.891 342.15C251.238 337.454 251.091 332.542 252.11 327.895C253.11 323.333 256.092 319.684 255.439 314.74C253.752 301.973 244.604 292.45 240.239 280.853C236.91 272.01 236.015 263.394 234.623 254.137C234.201 251.336 232.77 245.788 233.455 243.083C233.739 241.958 236.846 238.242 238.126 237.868C242.195 236.678 244.509 242.585 244.999 245.591Z" fill="#b6d1fe" fill-rule="nonzero" opacity="1" stroke="none"/>
<path d="M175.251 217.363C177.673 211.406 172.808 214.024 169.754 211.984C167.074 210.192 168.082 207.446 164.172 208.565C157.926 210.352 161.808 211.665 159.469 215.373C157.987 217.723 156.895 216.28 157.235 219.538C158.178 228.552 162.329 219.214 167.387 223.338C169.224 224.835 168.287 225.475 168.956 227.457C170.128 230.923 173.454 234.059 173.967 237.743C174.44 241.138 173.095 244.688 172.673 247.995C172.219 251.563 172.855 254.877 171.38 258.248C168.998 263.694 164.254 270.724 167.792 276.804C169.171 279.172 171.359 280.409 173.289 282.183C174.971 283.73 176.156 285.888 177.699 287.576C180.187 290.297 182.799 292.642 185.074 295.547C186.597 297.492 189.549 299.995 189.83 302.678C190.019 304.483 189.48 306.355 189.893 308.122C191.41 314.601 193.941 322.999 198.062 328.281C199.787 330.492 202.034 332.232 203.892 334.31C204.609 335.111 209.889 342.718 210.291 342.51C211.968 341.646 209.448 338.612 209.154 338.168C206.579 334.281 202.646 331.225 200.871 326.832C199.758 324.078 197.985 319.969 197.497 317.071C196.963 313.906 198.033 311.888 196.315 308.917C194.784 306.271 192.566 304.116 190.904 301.576C188.465 297.848 186.54 293.755 183.924 290.116C181.512 286.762 178.721 283.515 177.172 279.632C172.75 268.552 176.885 256.55 176.988 245.222C177.04 239.626 174.396 233.995 174.075 228.376C173.647 220.876 183.088 218.195 175.725 211.368" fill="#424242" fill-rule="nonzero" opacity="1" stroke="none"/>
<path d="M254.033 263.289C251.098 267.757 253.532 269.332 257.841 271.038C262.608 272.926 266.616 274.845 271.121 277.342C274.99 279.487 279.428 280.466 281.604 284.68C286.195 293.575 274.914 298.348 272.682 305.929C272.207 307.546 272.396 309.297 272.472 310.981C272.868 319.819 284.659 325.469 288.527 333.272C290.936 338.129 291.429 345.244 289.422 350.33C288.39 352.945 286.714 355.418 286.337 358.252C285.645 363.455 286.517 367.892 288.721 372.612C292.172 380 295.932 385.773 303.394 389.555C304.217 389.972 310.215 392.552 310.889 391.478C311.426 390.621 307.578 388.589 307.566 388.579C304.357 385.951 302.838 383.717 299.146 381.328C294.247 378.157 290.985 368.555 290.499 363.026C290.288 360.628 290.016 357.829 290.357 355.429C291.296 348.821 296.157 341.452 294.208 334.659C293.413 331.886 291.584 327.82 289.292 325.943C284.213 321.783 276.85 317.525 276.415 309.995C275.759 298.656 292.746 294.325 285.824 282.556C283.234 278.152 276.429 272.268 271.886 270.014C269.236 268.698 266.326 267.785 263.781 266.226C262.424 265.394 261.426 264.015 260 263.308C254.561 260.608 253.13 264.98 253.316 269.469" fill="#ffffff" fill-rule="nonzero" opacity="1" stroke="none"/>
<path d="M236.043 199.904C233.008 199.555 230.002 199.739 227.124 201.078C225.337 201.909 226.519 202.4 224.499 202.512C224.008 202.54 223.526 202.179 223.043 202.271C221.709 202.524 221.32 203.478 220.25 204.115C218.127 205.38 214.971 206.731 212.533 207.165C207.622 208.039 202.933 205.866 198.126 205.533C193.238 205.194 189.269 206.783 184.921 208.834C184.686 208.945 182.428 210.079 182.212 210.474C181.338 212.07 182.266 212.227 182.199 213.706C182.09 216.084 181.809 219.308 181.232 221.581C180.798 223.29 179.972 226.401 182.469 227.009C186.954 228.1 192.448 218.523 195.919 216.134C200.93 212.684 206.599 214.932 212.013 213.665C216.171 212.692 219.493 208.873 222.367 205.949C225.096 203.173 228.701 202.205 232.395 201.935C233.108 201.883 236.584 201.717 236.885 200.911C237.039 200.501 236.478 199.954 236.043 199.904Z" fill="#b6d1fe" fill-rule="nonzero" opacity="1" stroke="none"/>
<path d="M181.74 267.66C183.134 268.956 183.173 270.347 184.231 271.833C186.045 274.38 188.802 275.401 190.099 278.436C192.541 284.153 192.566 290.689 195.254 296.275C195.913 297.644 197.186 298.642 197.904 299.981C200.101 304.072 201.861 308.756 203.971 312.956C204.951 314.907 205.238 317.156 206.353 319.032C209.574 324.449 213.163 329.861 216.884 334.915C218.858 337.596 220.328 340.645 222.301 343.326C223.677 345.195 225.79 345.936 227.379 347.487C227.877 347.974 229.85 352.289 230.896 351.949C233.083 351.238 230.642 347.613 230.434 347.324C228.389 344.482 224.889 342.405 222.58 339.706C220.192 336.914 218.41 333.211 216.736 329.98C213.883 324.474 211.843 318.709 209.955 312.878C209.171 310.457 209.219 311.881 207.989 309.365C206.7 306.731 206.016 303.534 205.003 300.786C203.709 297.275 201.422 294.266 200.097 290.755C199.064 288.016 199.323 284.937 197.796 282.368C196.463 280.126 194.755 278.246 193.296 276.15C192.083 274.409 191.6 272.158 190.037 270.566C187.953 268.445 185.077 269.119 183.08 267.639C182.636 267.31 181.297 262.472 180.313 262.934C178.805 263.642 181.156 267.117 181.74 267.66Z" fill="#b6d1fe" fill-rule="nonzero" opacity="1" stroke="none"/>
<path d="M390.753 105.665C389.395 111.993 388.601 121.32 385.077 126.946C379.329 136.123 370.151 142.137 362.061 148.938C354.951 154.915 348.129 161.16 340.335 166.208C335.071 169.616 330.226 173.685 324.558 176.424C320.134 178.562 314.516 179.237 310.394 181.709C309.252 182.393 304.906 186.154 305.467 187.871C306.483 190.98 317.872 185.164 320.084 184.351C323.981 182.918 332.135 179.718 335.026 176.733C337.167 174.522 338.842 172.211 341.392 170.324C344.681 167.89 348.38 166.087 351.695 163.653C357.102 159.682 363.004 157.016 368.588 153.399C373.591 150.16 378.131 146.579 382.775 142.841C386.196 140.087 390.935 138.589 393.363 134.841C397.673 128.187 400.158 113.58 399.896 105.689C399.762 101.641 398.822 97.556 398.637 93.4722C398.305 86.1667 397.783 78.0727 399.335 70.8424C399.525 69.9572 400.004 69.0868 399.904 68.187C399.805 67.2871 399.673 65.7491 398.77 65.7204C397.761 65.6882 397.19 67.1286 396.876 68.0905C396.609 68.9067 397.161 69.7927 397.158 70.6515C397.145 73.6412 396.037 76.5553 395.542 79.4714C395.037 82.4523 396.017 84.9076 395.688 87.8368C395.379 90.5859 394.154 93.0488 393.448 95.6889C391.623 102.515 390.22 109.442 388.739 116.344" fill="#ffc7e7" fill-rule="nonzero" opacity="1" stroke="none"/>
<path d="M392.634 185.602C382.258 191.044 371.277 194.341 360.064 197.805C356.022 199.053 350.904 199.269 347.415 201.975C345.866 203.175 344.985 205.178 343.299 206.173C341.135 207.451 333.745 207.012 333.577 210.575C333.477 212.693 335.9 212.881 337.145 213.033C341.635 213.584 345.339 212.507 349.046 209.903C352.998 207.126 355.429 202.55 359.936 200.509C364.324 198.523 369.725 199.43 374.059 196.736C376.327 195.327 376.191 192.532 378.343 190.956C380.425 189.433 383.205 189.227 385.551 188.446C390.224 186.89 392.911 182.571 394.844 178.323" fill="#bcd5ff" fill-rule="nonzero" opacity="1" stroke="none"/>
<path d="M343.573 220.113C342.324 221.849 338.576 224.181 338.064 226.162C337.244 229.341 342.243 230.104 343.751 228.207C345.104 226.505 344.065 222.773 344.611 220.863C345.595 217.418 349.025 216.177 349.811 212.463" fill="#bcd5ff" fill-rule="nonzero" opacity="1" stroke="none"/>
<path d="M320.977 225.543C316.128 231.093 310.436 233.244 304.789 237.49C303.655 238.343 301.663 240.487 301.586 242.106C301.279 248.615 309.586 249.806 312.359 245.091C314.879 240.806 309.041 241.403 307.34 239.76C306.759 239.199 304.34 233.812 304.96 232.872C306.205 230.986 314.482 230.914 317.089 229.846C321.314 228.115 324.13 224.673 325.966 220.637" fill="#bcd5ff" fill-rule="nonzero" opacity="1" stroke="none"/>
<path d="M397.827 147.222C394.193 149.25 392.898 153.408 390.363 156.66C389.509 157.755 387.133 160.901 385.935 161.545C384.092 162.535 381.111 161.253 379.808 162.892C379.271 163.567 379.382 164.884 380.013 165.472C380.672 166.086 381.827 165.767 382.712 165.599C386.671 164.848 387.804 160.927 390.9 159.116C391.668 158.666 392.763 158.908 393.455 158.348C394.93 157.154 394.936 153.275 395.684 151.63C396.202 150.492 399.011 146.561 397.827 147.222Z" fill="#bcd5ff" fill-rule="nonzero" opacity="1" stroke="none"/>
<path d="M236.571 238.719C232.539 232.483 229.44 225.113 221.097 223.767C210.548 222.066 197.142 229.273 194.048 239.821C192.821 244.003 193.722 244.113 194.409 248.53C195.055 252.687 195.119 255.869 197.846 259.337C201.405 263.861 207.966 270.257 214.121 270.536C218.743 270.746 222.598 268.774 226.734 267.088C235.173 263.65 237.073 257.832 238.761 249.259C238.887 248.617 239.992 243.19 239.782 242.022C239.147 238.476 235.846 233.266 233.625 230.503" fill="#ffcb4f" fill-rule="nonzero" opacity="1" stroke="none"/>
</g>
</svg>
