<?xml version="1.0" encoding="UTF-8" standalone="no"?>
<!DOCTYPE svg PUBLIC "-//W3C//DTD SVG 1.1//EN" "http://www.w3.org/Graphics/SVG/1.1/DTD/svg11.dtd">
<!-- Created with Vectornator (http://vectornator.io/) -->
<svg height="1024.0px" stroke-miterlimit="10"
    style="fill-rule:nonzero;clip-rule:evenodd;stroke-linecap:round;stroke-linejoin:round;"
    version="1.1" viewBox="0 0 1024 1024" width="1024.0px" xml:space="preserve"
    xmlns="http://www.w3.org/2000/svg" xmlns:vectornator="http://vectornator.io"
    xmlns:xlink="http://www.w3.org/1999/xlink">
<defs/>
<clipPath id="ArtboardFrame">
<rect height="1024" width="1024" x="0" y="0"/>
</clipPath>
<g clip-path="url(#ArtboardFrame)" id="Layer-1" vectornator:layerName="Layer 1">
<g opacity="1" vectornator:layerName="Group 4">
<path d="M850.509-17.6526C805.252 63.5469 791.075 161.793 767.514 250.832C755.263 297.15 729.233 340.924 721.364 388.393C713.968 433.056 713.101 485.878 716.698 530.878C720.397 577.185 737.128 628.668 753.289 671.97C766.556 707.506 802.888 760.131 776.761 800.849C770.594 810.455 759.363 816.285 748.836 820.772C707.134 838.558 678.598 775.285 663.617 744.584C649.408 715.479 653.884 690.605 651.179 659.61C650.262 649.063 657.217 630.822 646.925 628.125C635.256 625.067 624.369 640.392 619.117 651.206C615.404 658.84 617.815 706.338 618.202 717.656C618.864 736.877 626.157 755.292 629.669 774.2C639.955 829.545 644.943 912.551 610.639 961.454C607.669 965.688 570.604 998.444 564.212 997.813C544.225 995.848 532.918 957.962 530.637 945.181C522.902 901.84 531.645 855.742 532.453 812.287C532.636 802.804 536.492 791.922 531.482 783.851C526.239 775.393 515.241 766.505 505.554 768.918C479.094 775.505 484.482 853.315 483.611 870.869C480.956 924.604 495.459 1005.02 425.195 1021.5C415.862 1023.69 402.695 1026.61 396.52 1019.3C387.553 1008.7 389.797 992.275 388.77 978.454C384.508 921.142 408.608 865.022 427.603 812.669C431.014 803.273 436.491 793.908 436.152 783.917C435.812 773.925 434.92 759.682 425.662 755.809C406.748 747.883 373.894 784.765 366.536 792.6C350.003 810.217 307.368 883.127 280.574 880.908C269.36 879.978 259.341 869.724 254.425 859.652C241.57 833.311 262.369 789.636 283.251 773.278C307.412 754.36 349.111 753.857 370.838 732.363C378.566 724.71 393.108 711.383 385.74 703.391C377.732 694.714 362.381 707.534 351.035 710.894C316.719 721.057 255.053 760.037 218.474 737.521C209.475 731.974 200.161 723.309 198.568 712.888C193.796 681.678 279.195 623.018 303.149 611.303C341.646 592.469 392.355 596.989 418.867 556.78C436.61 529.865 431.858 495.66 454.046 470.195C481.399 438.797 527.108 429.774 553.245 397.252C586.21 356.231 578.613 302.596 576.956 254.122C575.489 211.127 576.159 167.448 572.537 124.599C570.78 103.831 564.754 82.6398 567.202 61.5191C570.697 31.3944 580.856 3.22029 583.232-27.5801" fill="#ffafdf" fill-rule="nonzero" opacity="1" stroke="none" vectornator:layerName="path"/>
<path d="M597.236 350.36C603.026 319.544 596.51 285.463 593.968 254.494C591.253 221.423 594.593 187.289 589.491 154.453C585.25 127.169 578.864 103.671 579.387 75.6978C579.722 57.7113 572.664 26.2255 581.387 10.243C584.975 3.67806 591.102-1.15579 595.63-7.11238C599.56-12.2766 601.803-19.8498 607.831-22.2938C617.335-26.1491 636.871-21.1393 637.968-8.54396C639.036 3.69076 619.896 25.6838 615.137 36.5223C607.007 55.0344 606.656 74.2122 604.379 93.8345C597.89 149.745 604.169 205.551 609.04 261.369C610.938 283.219 604.163 304.897 604.913 326.895" fill="#ffc7e7" fill-rule="nonzero" opacity="1" stroke="none" vectornator:layerName="path"/>
<path d="M577.744 400.061C582.812 383.666 548.585 431.405 534.635 441.074C513.806 455.512 487.857 455.704 470.132 475.948C444.745 504.934 441.841 544.661 423.798 577.711C416.703 590.704 399.111 599.641 386.632 606.389C373.157 613.673 359.091 612.886 344.547 615.199C324.672 618.359 305.111 629.109 288.14 639.254C275.965 646.539 265.212 656.805 255.175 666.735C250.388 671.468 240.822 680.933 240.822 680.933C240.822 680.933 253.826 666.408 261.308 660.2C274.268 649.446 289.69 641.588 304.937 634.467C334.579 620.615 372.905 618.528 404.806 611.044C415.512 608.538 427.049 611.12 437.539 607.832C476.374 595.661 471.348 547.835 486.459 519.693C499.094 496.164 516.735 486.022 535.574 468.462C555.502 449.876 570.033 425.004 577.744 400.061Z" fill="#ffc7e7" fill-rule="nonzero" opacity="1" stroke="none" vectornator:layerName="path"/>
<path d="M715.734 624.252C717.951 636.359 709.467 593.606 707.929 581.803C703.747 549.732 701.198 514.087 704.512 481.723C705.029 476.663 704.299 436.449 704.025 436.389C692.688 433.976 688.522 478.903 688.743 485.423C690.282 530.569 707.654 580.136 715.734 624.252Z" fill="#ffc7e7" fill-rule="nonzero" opacity="1" stroke="none" vectornator:layerName="path"/>
<path d="M769.981 785.359C788.998 794.925 730.076 821.007 711.209 802.114C694.911 785.789 697.039 778.509 689.589 758.55C686.549 750.402 679.686 740.719 679.455 740.965C673.601 747.193 695.625 759.258 698.236 763.528C713.72 788.869 743.396 771.981 769.981 785.359Z" fill="#ffc7e7" fill-rule="nonzero" opacity="1" stroke="none" vectornator:layerName="path"/>
<path d="M561.596 966.96C537.187 959.862 542.805 931.702 537.901 909.226C534.178 892.143 528.592 873.217 535.01 855.536C537.246 849.386 554.02 817.118 547.261 810.824C544.376 808.149 545.935 818.577 545.536 822.486C545.143 826.348 544.921 830.229 544.877 834.109C544.725 847.214 544.216 860.042 544.091 873.16C543.962 886.87 540.629 902.93 542.386 916.455C544.002 928.824 547.181 923.963 553.587 934.008C559.422 943.158 571.897 969.949 561.596 966.96Z" fill="#ffc7e7" fill-rule="nonzero" opacity="1" stroke="none" vectornator:layerName="path"/>
<path d="M935.02 667.89C896.466 632.047 911.676 585.028 896.02 541.498C885.726 512.866 850.884 514.243 825.681 512.819C816.828 512.315 797.013 512.16 793.128 524.274C790.437 532.66 831.747 557.74 837.78 562.458C883.584 598.267 942.308 634.167 963.552 691.089" fill="#efefef" fill-rule="nonzero" opacity="1" stroke="none" vectornator:layerName="path"/>
<path d="M932.043 885.445C930.955 853.735 929.63 822.604 918.469 792.709C911.849 774.972 907.93 764.398 897.886 748.535C893.118 740.994 857.069 696.433 852.879 700.013C850.338 702.182 862.189 730.481 862.657 732.466C864.121 738.648 864.219 745.073 865.041 751.373C871.653 802.139 890.14 847.12 906.356 894.942C914.183 918.024 898.106 924.81 928.377 930.438" fill="#efefef" fill-rule="nonzero" opacity="1" stroke="none" vectornator:layerName="path"/>
<path d="M223.863 493.842C177.9 510.11 131.92 531.864 98.8266 568.781C89.3199 579.389 70.4778 599.176 85.8656 613.891C89.8156 617.672 96.4364 620.691 101.564 618.755C106.658 616.833 106.039 608.564 109.948 604.789C119.611 595.446 133.959 592.134 144.185 583.408C158.622 571.082 169.076 552.008 181.411 537.813C210.92 503.84 246.324 490.711 289.843 499.43" fill="#efefef" fill-rule="nonzero" opacity="1" stroke="none" vectornator:layerName="path"/>
<path d="M182.071 917.332C148.857 881.037 140.263 814.296 137.453 766.406C137.046 759.519 135.981 752.533 137.038 745.714C138.061 739.058 147.447 732.126 143.585 726.603C140.226 721.792 130.891 726.688 126.332 730.398C121.923 733.985 121.626 740.726 119.708 746.058C110.353 772.043 112.613 793.673 114.266 820.344C115.308 837.262 110.132 864.76 118.938 880.636C124.869 891.337 136.867 897.613 143.746 907.745C162.957 936.044 174.978 945.874 210.522 952.996" fill="#efefef" fill-rule="nonzero" opacity="1" stroke="none" vectornator:layerName="path"/>
</g>
</g>
</svg>