<?xml version="1.0" encoding="UTF-8" standalone="no"?>
<!DOCTYPE svg PUBLIC "-//W3C//DTD SVG 1.1//EN" "http://www.w3.org/Graphics/SVG/1.1/DTD/svg11.dtd">
<!-- Created with Vectornator (http://vectornator.io/) -->
<svg height="100%" stroke-miterlimit="10"
    style="fill-rule:nonzero;clip-rule:evenodd;stroke-linecap:round;stroke-linejoin:round;"
    version="1.1" viewBox="0 0 407.155 500" width="100%" xml:space="preserve"
    xmlns="http://www.w3.org/2000/svg" xmlns:vectornator="http://vectornator.io"
    xmlns:xlink="http://www.w3.org/1999/xlink">
<defs/>
<clipPath id="ArtboardFrame">
<rect height="500" width="407.155" x="0" y="0"/>
</clipPath>
<g clip-path="url(#ArtboardFrame)" id="Layer-1" vectornator:layerName="Layer 1">
<path d="M115.289 295.554C120.193 286.187 129.945 289.348 137.851 286.309C140.284 285.373 146.926 281.603 148.952 279.98C160.866 270.439 166.63 253.103 180.187 247.362C190.794 242.871 200.447 247.436 211.263 246.18C224.543 244.638 236.647 238.026 249.007 233.274C254.602 231.124 261.054 230.025 266.325 226.846C272.312 223.236 273.859 217.633 277.927 212.31C282.752 205.997 295.109 195.059 301.873 191.426C310.458 186.814 336.049 181.377 344.701 185.955C349.238 188.355 354.641 195.174 356.725 200.112C360.731 209.607 356.831 224.584 352.865 233.658C350.999 237.927 347.263 241.033 345.576 245.391C344.599 247.914 344.102 256.044 343.28 258.411C341.005 264.961 336.225 270.634 333.603 277.017C329.657 286.625 326.897 299.326 320.368 307.296C306.062 324.758 286.321 336.799 265.537 342.343C260.404 343.712 255.119 344.399 250.044 346.008C241.697 348.655 233.66 352.519 225.306 355.289C214.56 358.851 206.068 367.089 195.694 371.481C181.662 377.422 167.474 377.078 152.896 379.001C143.83 380.197 135.808 384.32 126.884 386.252C122.393 387.224 117.777 387.288 113.226 387.838C111.361 388.063 109.499 388.903 107.641 388.611C86.3075 385.26 101.517 357.504 105.132 344.917C106.767 339.226 107.21 332.32 107.97 326.422C109.142 317.311 107.378 309.69 110.706 301.094C111.505 299.032 111.731 296.565 113.103 294.906C113.61 294.293 114.913 296.272 115.289 295.554Z" fill="#ffcb4f" fill-rule="nonzero" opacity="1" stroke="none"/>
<path d="M97.0982 379.516C98.6837 377.173 101.83 382.26 104.367 383.143C106.065 383.735 110.874 383.479 112.388 383.455C123.588 383.275 133.726 380.655 144.357 376.775C149.287 374.976 154.265 371.908 159.508 371.247C169.159 370.029 178.715 374.577 188.368 371.224C199.109 367.493 206.987 358.317 216.549 352.272C222.508 348.505 229.946 345.979 236.463 343.584C241.985 341.554 247.62 341.121 253.242 339.791C262.02 337.714 271.921 333.148 279.937 328.792C287.343 324.766 293.854 317.587 300.129 311.73C307.138 305.187 314.623 296.723 319.422 288.076C322.67 282.222 323.582 275.502 326.363 269.465C330.108 261.337 336.107 253.06 341.248 245.882C346.425 238.654 349.049 229.536 354.13 222.331C354.883 221.262 355.678 219.441 356.896 219.644C358.142 219.851 358.712 221.774 358.951 223.134C359.59 226.77 356.914 231.613 357.53 235.49C358.548 241.905 362.548 245.135 359.78 252.191C357.424 258.197 351.641 260.663 349.16 266.016C345.454 274.013 354.134 278.956 349.471 287.153C347.715 290.241 344.449 294.558 342 296.963C339.306 299.609 334.243 300.966 332.085 304.17C327.077 311.603 336.973 321.147 330.062 330.189C327.146 334.005 320.592 337.34 316.146 337.9C311.745 338.456 308.108 336.946 304.15 339.855C295.133 346.48 295.578 359.698 285.283 365.264C274.956 370.848 264.417 364.343 254.853 367.514C248.155 369.735 242.311 380.902 235.469 385.003C226.969 390.098 218.159 385.968 209.453 387.623C202.302 388.982 198.946 401.267 190.857 404.218C184.685 406.471 173.263 405.641 167.575 401.949C165.305 400.476 163.324 397.901 160.698 397.655C152.51 396.888 145.74 408.001 139.265 412.094C138.286 412.713 132.996 415.502 131.69 414.858C127.141 412.616 129.903 402.002 119.919 404.917C115.107 406.321 115.254 411.079 112.04 414.293C107.984 418.348 101.443 421.186 96.0685 418.513C81.9753 411.505 91.2348 388.181 97.0982 379.516Z" fill="#050505" fill-rule="nonzero" opacity="1" stroke="none"/>
<path d="M132.318 4.21583C123.987 4.58263 115.165 7.60383 108.427 9.94454C99.7155 12.9709 90.6768 14.178 81.9528 16.9446C67.8697 21.4108 56.1576 31.2744 42.4259 36.5529C33.5121 39.9794 24.546 41.2082 15.3204 42.8082C13.5988 43.1068 8.93651 44.7886 5.74319 44.8561C5.54972 44.9075 5.15357 44.9627 4.96325 45.0188C3.64593 45.407 0.553699 46.4316-0.0236759 46.6225L-0.0377437 173.596C31.5279 165.352 52.2047 144.397 71.4977 117.034C76.837 109.462 81.1326 100.82 85.7349 92.7285C88.814 87.315 88.4846 85.1974 92.8567 80.9505C94.9968 78.8717 101.31 74.0932 104.763 77.1021C107.454 79.4476 104.166 89.2988 103.627 90.9869C99.1069 105.164 94.9015 117.736 92.9718 132.733C91.142 146.951 90.7494 164.133 94.9388 177.937C99.9899 194.58 108.815 210.258 112.94 227.227C115.383 237.275 111.127 239.381 109.265 247.696C108.743 250.027 109.778 260.027 110.136 262.283C112.666 278.218 113.002 298.102 132.474 291.818C140.165 289.336 160.198 276.412 162.648 267.287C165.032 258.405 153.907 242.227 152.184 233.903C150.971 228.04 151.675 219.492 151.89 213.468C152.478 197.073 151.848 180.173 153.168 163.862C154.073 152.691 157.751 141.153 159.953 130.211C164.822 106.022 169.867 81.3051 169.5 56.3793C169.252 39.4903 160.607 15.7485 146.218 7.16365C142.149 4.73595 137.317 3.99574 132.318 4.21583Z" fill="#ffafdf" fill-rule="nonzero" opacity="1" stroke="none"/>
<path d="M391.725 273.081C390.235 266.207 387.356 288.902 382.746 294.377C378.33 299.62 372.271 302.843 367.002 307.029C365.064 308.568 363.115 310.096 361.094 311.5C359.17 312.836 355.809 312.839 355.175 315.241C354.593 317.443 356.697 320.026 358.579 321.022C360.259 321.911 370.209 318.518 371.144 317.903C385.777 308.268 395.485 290.428 391.725 273.081Z" fill="#efefef" fill-rule="nonzero" opacity="1" stroke="none"/>
<path d="M401.932 312.668C392.956 315.679 392.52 332.474 384.053 338.117C373.633 345.063 359.456 349.002 347.759 352.558C336.703 355.919 317.23 356.727 316.206 373.486C316.038 376.252 316.643 379.398 318.315 381.476C322.113 386.194 330.413 381.844 333.567 380.501C339.905 377.804 347.386 371.106 354.674 371.41C356.771 371.498 358.717 372.677 360.678 373.502C363.176 374.553 365.398 377.531 368.031 377.031C372.785 376.127 376.838 362.225 377.707 357.912C378.824 352.358 379.579 346.253 382.779 341.785C384.304 339.656 391.885 333.598 393.257 332.135C398.823 326.199 409.099 310.263 401.932 312.668Z" fill="#efefef" fill-rule="nonzero" opacity="1" stroke="none"/>
<path d="M103.335 454.887C86.7432 457.183 69.8742 462.032 53.0749 460.546C49.7939 460.256 46.5387 459.587 43.3333 458.761C40.6134 458.061 37.7805 454.484 35.3434 455.978C32.5765 457.674 32.7113 462.356 31.9541 465.738C31.3174 468.581 29.8397 471.963 31.1995 474.484C35.3539 482.189 51.4429 478.613 57.7326 476.97C63.7991 475.386 69.1747 471.219 75.2929 469.895C81.1323 468.631 87.8812 470.193 92.9103 466.7C98.3641 462.913 101.391 455.741 106.824 451.919C112.918 447.633 120.016 445.249 126.094 440.934" fill="#efefef" fill-rule="nonzero" opacity="1" stroke="none"/>
<path d="M186.095 437.06C178.945 441.65 169.353 445.375 162.454 451.026C159.569 453.39 152.549 461.327 149.394 463.853C140.792 470.742 131.369 475.179 121.352 478.861C112.888 481.972 104.323 483.945 95.8591 487.034C92.9437 488.098 87.0221 486.71 87.0718 490.087C87.123 493.57 92.8632 493.069 95.959 493.826C99.1338 494.603 102.436 494.53 105.686 494.64C120.297 495.135 132.08 489.818 145.279 484.3C151.366 481.755 157.824 480.243 163.722 477.21C171.904 473.003 173.937 473.269 176.768 463.413C177.57 460.621 177.859 457.573 177.522 454.667C177.169 451.622 174.149 448.974 174.745 445.977C175.412 442.618 178.268 440.113 180.812 438.115C182.267 436.972 187.64 436.068 186.095 437.06Z" fill="#efefef" fill-rule="nonzero" opacity="1" stroke="none"/>
<path d="M173.573 255.215C173.641 249.983 191.634 247.399 195.611 247.732C198.716 247.992 201.533 249.947 204.601 250.538C208.298 251.25 214.245 250.82 218.02 250.322C231.203 248.583 240.927 240.193 252.688 234.524C258.327 231.806 264.892 233.019 270.523 230.305C279.719 225.872 290.441 213.337 296.547 204.813C298.85 201.596 300.519 197.813 303.112 194.874C309.462 187.679 320.305 185.134 328.905 184.135C335.936 183.319 349.705 183.135 352.736 192.111C355.928 201.564 347.021 205.757 342.268 210.47C336.911 215.783 332.449 221.941 327.305 227.427C321.102 234.042 312.995 237.646 306.973 244.47C302.293 249.773 298.685 256.052 296.058 262.836C294.002 268.146 293.823 271.722 289.536 275.724C282.689 282.115 272.74 288.018 263.779 288.92C258.843 289.418 253.488 288.84 248.577 289.656C237.31 291.529 228.15 300.803 217.474 304.413C209.022 307.271 200.137 305.221 191.551 306.304C183.013 307.381 174.295 308.372 166.017 304.256C163.298 302.904 161.489 299.832 158.773 298.472C157.027 297.598 147.136 294.021 146.161 292.775C141.88 287.305 151.755 284.133 154.068 282.815C159.481 279.729 166.998 276.183 170.893 270.745C173.413 267.227 172.281 265.402 172.992 261.37C173.349 259.345 173.546 257.277 173.573 255.215Z" fill="#ffe7b0" fill-rule="nonzero" opacity="1" stroke="none"/>
<path d="M97.9896 385.646C96.1965 384.63 95.7196 389.352 95.0134 391.425C93.5617 395.687 94.6271 407.066 98.6581 409.651C104.367 413.311 108.933 407.5 106.355 401.516C106.057 400.824 100.615 393.48 100.288 392.373C99.8047 390.731 99.1443 388.409 100.26 387.197C101.544 385.803 108.373 389.508 108.995 389.819C114.741 392.694 119.494 395.485 126 395.116C127.56 395.027 129.1 394.49 130.661 394.58C133.621 394.751 136.399 397.028 139.347 396.69C140.969 396.503 142.228 394.606 143.859 394.617C145.333 394.628 146.361 396.729 147.835 396.75C153.084 396.825 157.567 387.539 164.853 387.544C168.039 387.547 171.24 387.87 174.372 388.522C178.108 389.3 179.035 392.121 183.107 391.144C186.07 390.433 187.539 386.566 190.02 384.653C193.994 381.59 199.586 382.048 203.607 378.949C206.499 376.72 208.051 372.914 210.272 369.897C215.621 362.633 224.664 356.548 232.805 354.361C235.973 353.51 239.241 352.394 241.83 350.217C243.171 349.089 246.091 348.476 245.728 346.661C245.378 344.91 242.541 345.474 240.919 345.66C237.414 346.063 234.079 347.705 230.913 349.399C226.464 351.78 222.36 356.632 218.237 359.66C212.744 363.694 207.041 367.515 201.467 371.426C194.481 376.328 178.755 386.296 170.248 384.853C164.98 383.96 163.256 379.442 157.537 380.099C148.375 381.151 143.195 386.02 135.441 390.406C130.301 393.313 126.016 391.026 120.795 390.017C112.642 388.441 105.841 390.092 97.9896 385.646Z" fill="#424242" fill-rule="nonzero" opacity="1" stroke="none"/>
<path d="M173.445 259.964C174.189 259.212 174.703 261.98 174.54 263.077C174.116 265.938 171.482 267.802 169.845 270.073C165.755 275.742 157.726 284.883 164.173 292.242C169.021 297.777 178.248 293.694 182.738 290.297C187.894 286.394 192.674 280.643 195.702 274.601C198.38 269.257 200.985 261.471 207.491 260.571C215.179 259.507 219.991 269.362 224.19 274.473C227.457 278.45 233.267 280.155 238.059 279.523C253.158 277.531 251.264 249.137 263.61 242.864C272.351 238.423 276.549 252.145 285.295 249.107C297.781 244.769 298.614 222.303 302.132 211.27C303.019 208.488 305.215 200.523 309.516 203.572C310.381 204.185 310.78 205.424 311.058 206.513C312.356 211.596 307.942 213.9 306.731 218.116C302.691 232.179 298.353 252.611 282.693 255.739C279.707 256.335 276.807 256.643 274.569 253.892C272.61 251.485 270.024 245.055 265.767 246.784C262.342 248.175 258.865 256.961 257.871 260.421C254.598 271.814 247.752 283.264 236.028 284.169C230.62 284.586 223.454 283.413 219.166 279.497C215.182 275.859 213.055 265.304 206.679 266.516C202.276 267.352 201.8 273.152 199.629 276.515C196.641 281.142 192.7 284.091 189.305 288.214C187.883 289.94 186.625 291.908 184.88 293.228C180.979 296.18 176.462 299.199 171.79 300.358C162.125 302.757 153.109 297.265 155.077 285.468C156.28 278.254 161.86 277.781 165.686 272.776C168.646 268.903 170.057 263.388 173.445 259.964Z" fill="#ffffff" fill-rule="nonzero" opacity="1" stroke="none"/>
<path d="M112.656 308.389C112.937 312.727 111.153 316.815 110.929 321.181C110.683 325.99 112.236 331.201 110.83 335.921C109.703 339.701 107.376 342.732 105.926 346.326C104.245 350.497 103.332 354.753 102.151 359.119C101.185 362.692 97.2202 375.054 98.8865 378.225C99.9377 380.226 101.553 380.004 103.212 380.502C109.207 382.303 113.247 382.598 119.175 380.194C121.707 379.168 125.666 378.202 125.66 374.483C125.647 367.274 112.792 372.528 112.254 365.1C111.7 357.458 114.229 348.754 115.31 341.217C116.546 332.607 115.09 323.721 114.716 315.14C114.596 312.378 113.907 308.241 114.3 305.588C114.53 304.035 115.069 302.433 114.767 300.894" fill="#ffe7b0" fill-rule="nonzero" opacity="1" stroke="none"/>
<path d="M185.472 365.397C189.702 365.562 192.047 363.534 195.636 361.608C204.218 357.002 211.232 348.587 220.324 344.86C222.567 343.941 225.372 344.071 227.717 343.338C233.025 341.68 237.954 338.965 243.481 337.985C247.826 337.215 252.431 337.566 256.689 336.663C264.323 335.043 271.447 329.566 278.346 325.843C285.158 322.166 291.659 318.191 295.422 310.58C295.743 309.932 298.706 304.804 298.298 304.133C295.751 299.933 289.769 312.781 287.994 314.071C282.279 318.225 273.787 324.959 267.37 327.279C261.185 329.515 254.579 331.354 248.209 332.824C244.318 333.722 240.161 332.739 236.261 333.116C229.762 333.744 220.108 336.757 214.236 339.927C211.456 341.427 208.477 342.713 206.144 345.038C200.408 350.754 196.125 356.484 188.536 359.227C187.07 359.757 180.082 361.976 179.847 363.748C179.203 368.616 187.839 363.537 189.376 363.066" fill="#ffe7b0" fill-rule="nonzero" opacity="1" stroke="none"/>
<path d="M9.26262 164.542C12.3654 163.406 14.4552 161.316 17.4275 159.75C23.7139 156.436 30.3208 153.014 35.9784 148.483C43.8234 142.2 50.7817 134.67 56.6135 126.214C59.2164 122.44 60.3982 118.272 63.1805 114.591C67.4653 108.923 72.4492 103.934 76.6648 98.1958C78.0805 96.269 80.4691 93.36 79.5459 90.4713C77.9354 85.4325 72.1543 92.72 70.87 94.4497C64.6611 102.812 60.6527 112.996 53.7883 120.775C49.9131 125.166 44.6948 127.673 40.2152 131.139C38.0032 132.851 37.7479 133.848 35.2818 135.057C32.675 136.336 29.5525 136.466 26.8311 137.387C24.2798 138.249 22.0254 139.747 19.3866 140.248C17.8211 140.546 16.237 141.03 14.6542 140.873C12.4066 140.649 7.34533 137.702 5.15316 139.654C3.71166 140.938 4.35508 143.588 4.23583 145.153C3.89519 149.625 1.87649 167.247 9.26262 164.542Z" fill="#ffc7e7" fill-rule="nonzero" opacity="1" stroke="none"/>
<path d="M120.117 13.1316C122.912 11.7569 126.413 11.2974 129.455 10.5778C134.408 9.40608 136.709 10.9963 141.359 12.4472C153.396 16.2039 155.855 28.3242 159.577 39.9716C161.87 47.1431 163.461 53.8864 164.27 61.5316C164.986 68.2957 164.451 73.8964 162.986 80.4401C162.6 82.1621 162.434 86.0988 160.899 87.342C156.44 90.9556 156.034 78.6934 155.744 76.7788C154.956 71.5834 154.422 66.3185 154.574 61.0004C154.752 54.7651 155.79 46.2716 153.021 40.4203C149.438 32.8474 143.167 34.235 136.955 31.7493C129.895 28.9248 122.918 24.3709 115.566 22.4769C114.073 22.0922 104.098 19.5983 103.945 18.5424C103.768 17.3195 104.856 16.1385 105.774 15.4223C107.312 14.2226 110.371 14.9201 112.013 14.6353C114.486 14.2064 116.669 12.3397 119.164 12.1166C119.605 12.0772 119.714 13.3299 120.117 13.1316Z" fill="#ffc7e7" fill-rule="nonzero" opacity="1" stroke="none"/>
<path d="M8.40618 170.215C11.3663 163.805 20.2159 164.149 25.5866 159.848C35.0231 152.291 44.1137 143.881 53.4354 136.091C57.464 132.724 59.5215 126.602 63.864 123.984C64.608 123.535 65.4094 122.405 66.175 122.81C66.8789 123.182 66.7336 124.556 66.4713 125.364C66.1845 126.246 65.1109 126.567 64.6901 127.382C63.294 130.087 63.0605 132.696 60.9234 135.118C59.8077 136.382 58.0602 136.905 57.0898 138.306C54.6229 141.869 55.9408 147.342 51.3208 150.622C48.4572 152.656 44.8382 151.226 42.0349 152.477C38.738 153.948 36.4402 159.275 33.6336 161.709C29.7338 165.09 26.0772 166.431 21.5738 168.44C17.5992 170.214 13.8692 174.658 9.48881 173.467C8.61466 173.229 7.18832 173.59 6.88988 172.656C6.73368 172.167 12.1994 168.375 12.7717 168.013C18.7591 164.228 24.7764 161.273 29.9291 156.083C36.8264 149.135 45.1323 144.016 52.4259 137.813C54.1502 136.346 55.2586 132.912 55.9841 133.491C57.2525 134.504 53.895 138.069 52.2007 140.09C51.6039 140.802 49.0963 143.66 48.3797 144.131C45.7974 145.832 42.5998 145.594 40.1534 147.675C37.4069 150.011 35.5148 153.228 33.2914 156.029C29.4581 160.857 24.2154 163.506 19.2168 166.488C16.3546 168.196 6.80881 173.674 8.40618 170.215Z" fill="#bcd5ff" fill-rule="nonzero" opacity="1" stroke="none"/>
<path d="M12.9786 182.081C10.0921 184.655 6.89523 194.536 9.85673 198.477C11.0223 200.028 13.1926 200.78 13.799 202.678C14.1148 203.665 14.0883 204.753 14.1037 205.8C14.1177 206.752 13.0849 208.284 13.8868 208.646C14.735 209.029 15.5847 207.557 15.9267 206.623C16.6023 204.778 15.8681 202.644 15.8389 200.655C15.7823 196.807 15.0256 193.177 15.1544 189.295C15.1828 188.438 15.6203 187.548 15.3754 186.733C14.8671 185.041 14.236 180.96 12.9786 182.081Z" fill="#bcd5ff" fill-rule="nonzero" opacity="1" stroke="none"/>
<path d="M102.767 77.8764C107.49 74.6553 113.825 75.3714 111.381 83.1393C110.775 85.0663 105.087 95.0631 103.543 95.4887C102.773 95.7011 101.992 94.8215 101.207 94.9576C100.1 95.1496 99.0469 95.7304 98.1244 96.4285C97.4702 96.9236 96.8779 97.6241 96.6018 98.4428C96.271 99.4236 95.5306 101.119 96.3892 101.573C97.2755 102.042 98.3755 100.57 98.6877 99.5464C98.9735 98.6089 97.9786 97.6989 97.8699 96.7168C97.6339 94.5845 98.4108 92.9272 99.601 91.2879C102.036 87.9336 106.519 88.6901 108.82 84.886C112.454 78.878 103.445 81.1526 108.932 74.9347" fill="#bcd5ff" fill-rule="nonzero" opacity="1" stroke="none"/>
<path d="M103.075 116.39C108.06 122.058 101.968 133.838 99.8195 141.316C98.7538 145.026 97.2319 149.601 97.6716 153.574C97.8093 154.819 100.58 164.065 101.451 164.316C104.362 165.154 107.066 161.473 106.282 158.553C105.797 156.748 103.568 156.055 102.857 154.344C102.175 152.703 103.637 150.618 103.036 148.94C102.723 148.066 101.551 147.833 101.196 146.979C99.8685 143.784 102.348 139.321 102.589 136.155C103.092 129.557 98.8364 111.571 103.075 116.39Z" fill="#bcd5ff" fill-rule="nonzero" opacity="1" stroke="none"/>
<path d="M94.1724 179.499C96.0478 184.612 95.447 187.215 93.5847 192.3C92.9964 193.907 91.2801 198.502 92.6672 200.275C95.6683 204.11 97.1977 197.12 97.2516 195.369C97.423 189.798 96.8023 189.4 95.0236 184.602C93.5799 180.708 96.18 178.39 94.0846 173.531" fill="#bcd5ff" fill-rule="nonzero" opacity="1" stroke="none"/>
<path d="M159.72 307.135C157.663 305.73 155.9 303.733 153.652 302.746C145.457 299.15 134.532 308.467 130.789 315.779C124.282 328.494 129.256 340.658 136.355 351.314C138.599 354.682 140.061 356.493 143.899 358.054C159.701 364.481 187.684 343.56 181.096 323.68C177.285 312.182 167.234 295.789 154.368 302.471" fill="#72a7ff" fill-rule="nonzero" opacity="1" stroke="none"/>
</g>
</svg>