<?xml version="1.0" encoding="UTF-8" standalone="no"?>
<!DOCTYPE svg PUBLIC "-//W3C//DTD SVG 1.1//EN" "http://www.w3.org/Graphics/SVG/1.1/DTD/svg11.dtd">
<!-- Created with Vectornator (http://vectornator.io/) -->
<svg height="718.2668040462011px" stroke-miterlimit="10"
    style="fill-rule:nonzero;clip-rule:evenodd;stroke-linecap:round;stroke-linejoin:round;"
    version="1.1" viewBox="0 0 1007.1 718.267" width="1007.0987960240782px" xml:space="preserve"
    xmlns="http://www.w3.org/2000/svg" xmlns:vectornator="http://vectornator.io"
    xmlns:xlink="http://www.w3.org/1999/xlink">
<defs/>
<clipPath id="ArtboardFrame">
<rect height="718.267" width="1007.1" x="0" y="0"/>
</clipPath>
<g clip-path="url(#ArtboardFrame)" id="Layer-1" vectornator:layerName="Layer 1">
<g opacity="1" vectornator:layerName="Group 3">
<path d="M-15.9197 492.177C31.6526 500.228 81.1298 487.642 129.678 490.542C149.253 491.709 168.47 496.347 188.353 496.944C225.525 498.067 263.023 496.107 300.215 495.688C344.351 495.193 389.875 495.875 433.323 488.894C471.291 482.79 558.982 475.657 578.337 436.042C587.189 417.928 584.505 369.211 572.066 353.096C568.169 348.049 561.294 346.218 555.968 342.68C537.943 330.709 520.304 318.164 502.279 306.193C487.005 296.053 468.169 290.306 459.282 273.118C456.456 267.656 452.079 261.436 453.755 255.52C459.081 236.728 493.862 239.949 506.902 244.324C532.77 253.003 547.466 274.2 562.53 294.921C565.8 299.421 568.555 304.273 571.565 308.946C574.579 313.624 575.327 321.166 580.604 322.975C585.916 324.793 593.383 322.124 596.523 317.5C605.469 304.335 586.131 277.903 581.737 266.444C575.256 249.532 575.283 232.625 570.503 215.348C560.904 180.678 541.33 148.565 533.827 113.321C532.089 105.163 529.244 85.1686 536.976 77.9602C540.886 74.3159 547.632 75.2425 552.935 76.0133C570.19 78.526 575.354 85.6008 583.404 100.401C596.752 124.949 604.411 158.211 612.774 184.848C614.297 189.691 620.067 215.174 629.115 216.457C634.521 217.224 639.041 210.603 641.424 205.72C647.202 193.892 640.129 177.635 637.433 166.907C628.609 131.805 612.779 76.8108 625.352 41.6419C626.468 38.5277 639.202 11.3558 644.524 9.6361C650.4 7.73376 657.782 10.5806 662.342 14.7328C667.812 19.7181 676.291 43.2279 678.741 51.6392C689.012 86.8571 674.271 126.922 674.678 162.955C674.799 173.554 671.919 184.612 675.041 194.747C676.676 200.058 678.508 208.411 684.08 208.772C690.36 209.182 694.786 201.546 698.145 196.253C703.924 187.147 703.377 172.734 704.864 162.617C708.412 138.497 714.387 52.4946 735.44 40.4033C749.017 32.6068 758.849 41.0315 765.765 52.4278C773.066 64.4611 770.943 94.5957 769.94 107.132C768.143 129.613 761.16 159.431 751.23 179.76C748.99 184.345 733.196 207.084 733.836 211.748C734.575 217.126 740.963 221.59 746.387 222.204C752.179 222.859 757.563 218.355 762.284 214.96C789.304 195.531 802.199 168.609 839.87 166.399C845.81 166.052 852.511 164.978 857.644 167.963C876.82 179.119 865.819 203.88 856.412 215.669C829.183 249.782 775.642 253.488 752.434 285.721C728.614 318.805 740.797 364.337 744.864 400.611C746.786 417.772 745.268 436.31 745.465 453.591C745.617 467.139 747.23 474.245 740.52 487.205C733.496 500.767 715.942 515.874 703.655 524.709C660.573 555.685 608.85 573.163 560.595 593.434C542.749 600.932 523.296 611.709 504.017 615.268C484.187 618.926 467.26 618.133 447.3 624.736C398.222 640.966 343.473 656.006 291.428 660.047C256.792 662.733 221.146 662.19 186.749 668.289C148.064 675.15 110.313 687.705 71.6171 694.311C40.7628 699.577 11.7354 705.222-16.9012 718.267" fill="#ffafdf" fill-rule="nonzero" opacity="1" stroke="none" vectornator:layerName="path"/>
<path d="M72.7145 501.631C71.4643 501.502 89.4129 499.947 90.9166 499.657C93.7175 499.118 105.116 495.26 108.644 495.037C122.708 494.142 137.203 497.367 151.34 497.211C166.857 497.033 180.307 503.141 195.864 503.783C231.533 505.249 266.942 506.598 302.59 507.886C314.937 508.332 328.544 510.528 340.832 509.227C356.855 507.525 372.591 503.444 388.761 502.495C421.592 500.571 454.216 497.84 486.418 490.787C498.642 488.114 513.871 487.281 525.437 482.394C531.054 480.019 535.802 475.925 541.334 473.372C547.592 470.485 553.495 468.605 559.923 466.088C562.893 464.925 566.888 459.891 568.77 462.452C572.765 467.883 544.94 485.383 540.617 488.413C536.048 491.611 530.678 493.723 526.499 497.412C521.925 501.444 519.52 507.49 515.103 511.686C502.843 523.328 478.44 530.665 461.979 530.852C448.263 531.008 434.793 528.883 421.072 529.542C386.013 531.231 351.182 536.141 316.215 533.374C306.477 532.608 297.388 535.789 287.79 535.463C273.727 534.987 254.917 527.93 242.297 521.826C233.67 517.661 235.469 515.482 226.197 513.165C217.141 510.907 207.7 513.776 198.631 512.595C174.437 509.432 150.873 503.172 126.482 500.143C109.089 497.982 90.4409 503.431 72.7145 501.631Z" fill="#ffc7e7" fill-rule="nonzero" opacity="1" stroke="none" vectornator:layerName="path"/>
<path d="M45.5019 685.829C68.5756 683.018 88.1058 669.63 109.964 663.932C122.57 660.648 134.764 661.134 147.375 659.276C162.595 657.04 178.205 652.611 193.242 649.444C211.418 645.617 230.247 647.158 248.541 645.434C266.734 643.723 281.75 644.285 298.675 636.404C301.206 635.223 305.652 635.637 306.299 632.929C306.956 630.184 303.77 627.208 301.114 626.215C298.168 625.114 280.797 629.333 279.017 629.85C250.352 638.181 218.149 640.698 188.038 641.037C172.919 641.206 158.437 635.272 142.868 637.308C132.754 638.631 124.369 642.244 113.97 641.87C100.554 641.384 87.4039 638.074 73.9185 638.93C66.4945 639.402 46.4806 634.256 40.706 638.457C29.354 646.717 48.7673 660.889 46.18 670.579C43.6143 680.184 38.284 675.564 32.6738 680.893C30.2799 683.165 29.3326 686.573 27.6619 689.415" fill="#ffc7e7" fill-rule="nonzero" opacity="1" stroke="none" vectornator:layerName="path"/>
<path d="M482.884 251.154C476.429 259.859 499.435 260.835 508.711 266.039C519.22 271.933 527.179 282.059 537.392 287.789C545.603 292.395 549.625 294.347 555.583 302.067C556.909 303.787 559.135 309.712 559.112 307.547C559.036 300.909 550.7 295.166 547.13 290.439C542.494 284.296 540.107 276.82 535.807 270.561C526.436 256.919 492.326 238.426 482.884 251.154Z" fill="#ffc7e7" fill-rule="nonzero" opacity="1" stroke="none" vectornator:layerName="path"/>
<path d="M566.844 103.301C561.155 100.82 572.577 118.738 575.063 124.588C579.663 135.418 582.418 146.583 586.535 157.569C588.013 161.512 590.342 168.854 590.875 173.38C591.112 175.439 589.294 180.847 590.942 179.591C597.827 174.334 591.95 160.469 589.97 154.771C583.587 136.421 585.392 111.383 566.844 103.301Z" fill="#ffc7e7" fill-rule="nonzero" opacity="1" stroke="none" vectornator:layerName="path"/>
<path d="M651.381 36.4828C643.686 37.5298 656.071 51.0823 656.837 58.8343C657.276 63.2538 656.497 73.0729 657.003 73.3179C658.871 74.2223 662.741 66.8357 662.414 61.5341C661.859 52.4946 660.004 35.3066 651.381 36.4828Z" fill="#ffc7e7" fill-rule="nonzero" opacity="1" stroke="none" vectornator:layerName="path"/>
<path d="M752.564 122.592C744.815 144.565 734.925 167.068 722.786 187.071C720.242 191.268 706.598 198.61 712.582 204.428C722.746 214.314 731.57 195.839 732.519 189.031C733.93 178.874 742.19 173.808 745.402 163.37C750.728 146.039 755.454 126.018 757.254 108.055" fill="#ffc7e7" fill-rule="nonzero" opacity="1" stroke="none" vectornator:layerName="path"/>
<path d="M845.111 211.218C830.5 225.145 816.014 236.39 798.352 246.231C790.831 250.423 783.539 255.475 775.615 258.901C773.604 259.77 767.422 260.086 769.398 261.04C774.208 263.365 788.117 255.11 792.193 253.194C804.542 247.398 821.196 239.036 830.755 229.31C836.144 223.831 850.706 205.885 845.111 211.218Z" fill="#ffc7e7" fill-rule="nonzero" opacity="1" stroke="none" vectornator:layerName="path"/>
<path d="M427.548 359.053C417.965 367.714 399.314 338.867 389.348 330.317C382.749 324.655 374.855 320.583 368.402 314.756C347.541 295.924 343.443 268.529 343.142 242.132C342.964 226.423 339.952 211.539 338.953 196.008C338.692 191.945 341.541 184.946 337.593 183.872C333.666 182.803 330.543 189.624 330.375 193.674C329.901 205.074 340.707 214.078 346.6 223.866C362.447 250.2 371.923 279.368 387.85 306.032C395.872 319.46 405.734 321.019 416.236 331.231C423.714 338.501 434.671 352.611 427.548 359.053Z" fill="#efefef" fill-rule="nonzero" opacity="1" stroke="none" vectornator:layerName="path"/>
<path d="M384.557 123.804C371.005 158.638 376.076 199.871 390.7 234.309C393.03 239.793 403.454 256.246 406.884 260.857C409.116 263.86 414.353 273.015 414.31 269.282C414.248 263.847 409.219 259.663 406.815 254.785C401.187 243.362 399.86 241.148 399.168 226.922C398.43 211.739 405.535 199.14 406.014 184.318C406.696 163.214 402.726 141.442 397.966 121.22C393.369 101.688 409.406 92.8092 385.309 82.4777" fill="#efefef" fill-rule="nonzero" opacity="1" stroke="none" vectornator:layerName="path"/>
<path d="M808.336 2.99259C837.814 27.1359 870.07 36.4427 892.139 67.0584C898.822 76.3251 904.292 82.0946 907.105 93.6245C912.372 115.219 914.186 141.851 915.235 164.007C915.427 168.052 911.324 175.702 915.373 176.156C919.463 176.619 929.792 156.874 931.002 154.112C937.152 140.101 942.379 96.997 936.296 82.3574C934.397 77.7909 929.882 74.7035 927.606 70.3062C921.658 58.7942 922.608 45.0144 912.547 35.2354C897.806 20.9032 792.918-9.63729 808.336 2.99259Z" fill="#efefef" fill-rule="nonzero" opacity="1" stroke="none" vectornator:layerName="path"/>
<path d="M951.916 59.0971C973.094 96.6941 990.617 143.99 970.451 185.258C963.056 200.396 953.586 217.437 942.867 230.531C937.049 237.637 929.273 243.01 923.544 250.187C921.156 253.181 915.602 256.683 917.546 259.975C920.014 264.158 933.447 256.669 943.087 249.969C954.747 241.869 972.525 228.687 980.583 216.738C988.588 204.874 1010.62 155.328 1006.62 142.324C1004.36 135.017 998.151 129.564 994.178 123.024C985.143 108.135 976.937 94.2437 964.39 82.0411" fill="#efefef" fill-rule="nonzero" opacity="1" stroke="none" vectornator:layerName="path"/>
</g>
</g>
</svg>